G75*
%MOIN*%
%OFA0B0*%
%FSLAX25Y25*%
%IPPOS*%
%LPD*%
%AMOC8*
5,1,8,0,0,1.08239X$1,22.5*
%
%ADD10C,0.01000*%
%ADD11C,0.05000*%
%ADD12R,0.23622X0.98425*%
%ADD13C,0.00000*%
%ADD14C,0.11627*%
%ADD15R,0.06800X0.06800*%
%ADD16C,0.06800*%
%ADD17OC8,0.06800*%
%ADD18C,0.11600*%
%ADD19C,0.06737*%
%ADD20C,0.07850*%
%ADD21R,0.04934X0.05052*%
%ADD22R,0.05524X0.02178*%
%ADD23C,0.06000*%
%ADD24C,0.09400*%
%ADD25C,0.14643*%
%ADD26C,0.13461*%
%ADD27C,0.06800*%
%ADD28OC8,0.07100*%
%ADD29C,0.07100*%
%ADD30C,0.05950*%
%ADD31C,0.08600*%
%ADD32C,0.09050*%
%ADD33C,0.08200*%
%ADD34OC8,0.06000*%
%ADD35R,0.05131X0.04737*%
%ADD36R,0.05524X0.02375*%
%ADD37C,0.26200*%
%ADD38R,0.07800X0.07800*%
%ADD39R,0.09400X0.09400*%
%ADD40C,0.04369*%
%ADD41OC8,0.08400*%
%ADD42C,0.08400*%
%ADD43C,0.09400*%
%ADD44C,0.07800*%
%ADD45C,0.04762*%
D10*
X0013061Y0050702D02*
X0013061Y0208182D01*
X0406762Y0208182D01*
X0406762Y0444402D01*
X0174478Y0444402D01*
X0150856Y0444402D01*
X0150856Y0345977D01*
X0174478Y0345977D01*
X0174478Y0444402D01*
X0150856Y0444402D02*
X0013061Y0444402D01*
X0013061Y0208182D01*
X0013061Y0050702D02*
X0406762Y0050702D01*
X0406762Y0208182D01*
D11*
X0387077Y0298733D02*
X0367392Y0298733D01*
X0367392Y0326292D02*
X0387077Y0326292D01*
X0387077Y0353851D02*
X0367392Y0353851D01*
X0071561Y0194952D02*
X0071561Y0186452D01*
X0060561Y0186202D02*
X0060561Y0194702D01*
X0049311Y0194952D02*
X0049311Y0186452D01*
D12*
X0162667Y0395190D03*
D13*
X0096231Y0422749D02*
X0096233Y0422896D01*
X0096239Y0423042D01*
X0096249Y0423188D01*
X0096263Y0423334D01*
X0096281Y0423480D01*
X0096302Y0423625D01*
X0096328Y0423769D01*
X0096358Y0423913D01*
X0096391Y0424055D01*
X0096428Y0424197D01*
X0096469Y0424338D01*
X0096514Y0424477D01*
X0096563Y0424616D01*
X0096615Y0424753D01*
X0096672Y0424888D01*
X0096731Y0425022D01*
X0096795Y0425154D01*
X0096862Y0425284D01*
X0096932Y0425413D01*
X0097006Y0425540D01*
X0097083Y0425664D01*
X0097164Y0425787D01*
X0097248Y0425907D01*
X0097335Y0426025D01*
X0097425Y0426140D01*
X0097518Y0426253D01*
X0097615Y0426364D01*
X0097714Y0426472D01*
X0097816Y0426577D01*
X0097921Y0426679D01*
X0098029Y0426778D01*
X0098140Y0426875D01*
X0098253Y0426968D01*
X0098368Y0427058D01*
X0098486Y0427145D01*
X0098606Y0427229D01*
X0098729Y0427310D01*
X0098853Y0427387D01*
X0098980Y0427461D01*
X0099109Y0427531D01*
X0099239Y0427598D01*
X0099371Y0427662D01*
X0099505Y0427721D01*
X0099640Y0427778D01*
X0099777Y0427830D01*
X0099916Y0427879D01*
X0100055Y0427924D01*
X0100196Y0427965D01*
X0100338Y0428002D01*
X0100480Y0428035D01*
X0100624Y0428065D01*
X0100768Y0428091D01*
X0100913Y0428112D01*
X0101059Y0428130D01*
X0101205Y0428144D01*
X0101351Y0428154D01*
X0101497Y0428160D01*
X0101644Y0428162D01*
X0101791Y0428160D01*
X0101937Y0428154D01*
X0102083Y0428144D01*
X0102229Y0428130D01*
X0102375Y0428112D01*
X0102520Y0428091D01*
X0102664Y0428065D01*
X0102808Y0428035D01*
X0102950Y0428002D01*
X0103092Y0427965D01*
X0103233Y0427924D01*
X0103372Y0427879D01*
X0103511Y0427830D01*
X0103648Y0427778D01*
X0103783Y0427721D01*
X0103917Y0427662D01*
X0104049Y0427598D01*
X0104179Y0427531D01*
X0104308Y0427461D01*
X0104435Y0427387D01*
X0104559Y0427310D01*
X0104682Y0427229D01*
X0104802Y0427145D01*
X0104920Y0427058D01*
X0105035Y0426968D01*
X0105148Y0426875D01*
X0105259Y0426778D01*
X0105367Y0426679D01*
X0105472Y0426577D01*
X0105574Y0426472D01*
X0105673Y0426364D01*
X0105770Y0426253D01*
X0105863Y0426140D01*
X0105953Y0426025D01*
X0106040Y0425907D01*
X0106124Y0425787D01*
X0106205Y0425664D01*
X0106282Y0425540D01*
X0106356Y0425413D01*
X0106426Y0425284D01*
X0106493Y0425154D01*
X0106557Y0425022D01*
X0106616Y0424888D01*
X0106673Y0424753D01*
X0106725Y0424616D01*
X0106774Y0424477D01*
X0106819Y0424338D01*
X0106860Y0424197D01*
X0106897Y0424055D01*
X0106930Y0423913D01*
X0106960Y0423769D01*
X0106986Y0423625D01*
X0107007Y0423480D01*
X0107025Y0423334D01*
X0107039Y0423188D01*
X0107049Y0423042D01*
X0107055Y0422896D01*
X0107057Y0422749D01*
X0107055Y0422602D01*
X0107049Y0422456D01*
X0107039Y0422310D01*
X0107025Y0422164D01*
X0107007Y0422018D01*
X0106986Y0421873D01*
X0106960Y0421729D01*
X0106930Y0421585D01*
X0106897Y0421443D01*
X0106860Y0421301D01*
X0106819Y0421160D01*
X0106774Y0421021D01*
X0106725Y0420882D01*
X0106673Y0420745D01*
X0106616Y0420610D01*
X0106557Y0420476D01*
X0106493Y0420344D01*
X0106426Y0420214D01*
X0106356Y0420085D01*
X0106282Y0419958D01*
X0106205Y0419834D01*
X0106124Y0419711D01*
X0106040Y0419591D01*
X0105953Y0419473D01*
X0105863Y0419358D01*
X0105770Y0419245D01*
X0105673Y0419134D01*
X0105574Y0419026D01*
X0105472Y0418921D01*
X0105367Y0418819D01*
X0105259Y0418720D01*
X0105148Y0418623D01*
X0105035Y0418530D01*
X0104920Y0418440D01*
X0104802Y0418353D01*
X0104682Y0418269D01*
X0104559Y0418188D01*
X0104435Y0418111D01*
X0104308Y0418037D01*
X0104179Y0417967D01*
X0104049Y0417900D01*
X0103917Y0417836D01*
X0103783Y0417777D01*
X0103648Y0417720D01*
X0103511Y0417668D01*
X0103372Y0417619D01*
X0103233Y0417574D01*
X0103092Y0417533D01*
X0102950Y0417496D01*
X0102808Y0417463D01*
X0102664Y0417433D01*
X0102520Y0417407D01*
X0102375Y0417386D01*
X0102229Y0417368D01*
X0102083Y0417354D01*
X0101937Y0417344D01*
X0101791Y0417338D01*
X0101644Y0417336D01*
X0101497Y0417338D01*
X0101351Y0417344D01*
X0101205Y0417354D01*
X0101059Y0417368D01*
X0100913Y0417386D01*
X0100768Y0417407D01*
X0100624Y0417433D01*
X0100480Y0417463D01*
X0100338Y0417496D01*
X0100196Y0417533D01*
X0100055Y0417574D01*
X0099916Y0417619D01*
X0099777Y0417668D01*
X0099640Y0417720D01*
X0099505Y0417777D01*
X0099371Y0417836D01*
X0099239Y0417900D01*
X0099109Y0417967D01*
X0098980Y0418037D01*
X0098853Y0418111D01*
X0098729Y0418188D01*
X0098606Y0418269D01*
X0098486Y0418353D01*
X0098368Y0418440D01*
X0098253Y0418530D01*
X0098140Y0418623D01*
X0098029Y0418720D01*
X0097921Y0418819D01*
X0097816Y0418921D01*
X0097714Y0419026D01*
X0097615Y0419134D01*
X0097518Y0419245D01*
X0097425Y0419358D01*
X0097335Y0419473D01*
X0097248Y0419591D01*
X0097164Y0419711D01*
X0097083Y0419834D01*
X0097006Y0419958D01*
X0096932Y0420085D01*
X0096862Y0420214D01*
X0096795Y0420344D01*
X0096731Y0420476D01*
X0096672Y0420610D01*
X0096615Y0420745D01*
X0096563Y0420882D01*
X0096514Y0421021D01*
X0096469Y0421160D01*
X0096428Y0421301D01*
X0096391Y0421443D01*
X0096358Y0421585D01*
X0096328Y0421729D01*
X0096302Y0421873D01*
X0096281Y0422018D01*
X0096263Y0422164D01*
X0096249Y0422310D01*
X0096239Y0422456D01*
X0096233Y0422602D01*
X0096231Y0422749D01*
X0096231Y0229835D02*
X0096233Y0229982D01*
X0096239Y0230128D01*
X0096249Y0230274D01*
X0096263Y0230420D01*
X0096281Y0230566D01*
X0096302Y0230711D01*
X0096328Y0230855D01*
X0096358Y0230999D01*
X0096391Y0231141D01*
X0096428Y0231283D01*
X0096469Y0231424D01*
X0096514Y0231563D01*
X0096563Y0231702D01*
X0096615Y0231839D01*
X0096672Y0231974D01*
X0096731Y0232108D01*
X0096795Y0232240D01*
X0096862Y0232370D01*
X0096932Y0232499D01*
X0097006Y0232626D01*
X0097083Y0232750D01*
X0097164Y0232873D01*
X0097248Y0232993D01*
X0097335Y0233111D01*
X0097425Y0233226D01*
X0097518Y0233339D01*
X0097615Y0233450D01*
X0097714Y0233558D01*
X0097816Y0233663D01*
X0097921Y0233765D01*
X0098029Y0233864D01*
X0098140Y0233961D01*
X0098253Y0234054D01*
X0098368Y0234144D01*
X0098486Y0234231D01*
X0098606Y0234315D01*
X0098729Y0234396D01*
X0098853Y0234473D01*
X0098980Y0234547D01*
X0099109Y0234617D01*
X0099239Y0234684D01*
X0099371Y0234748D01*
X0099505Y0234807D01*
X0099640Y0234864D01*
X0099777Y0234916D01*
X0099916Y0234965D01*
X0100055Y0235010D01*
X0100196Y0235051D01*
X0100338Y0235088D01*
X0100480Y0235121D01*
X0100624Y0235151D01*
X0100768Y0235177D01*
X0100913Y0235198D01*
X0101059Y0235216D01*
X0101205Y0235230D01*
X0101351Y0235240D01*
X0101497Y0235246D01*
X0101644Y0235248D01*
X0101791Y0235246D01*
X0101937Y0235240D01*
X0102083Y0235230D01*
X0102229Y0235216D01*
X0102375Y0235198D01*
X0102520Y0235177D01*
X0102664Y0235151D01*
X0102808Y0235121D01*
X0102950Y0235088D01*
X0103092Y0235051D01*
X0103233Y0235010D01*
X0103372Y0234965D01*
X0103511Y0234916D01*
X0103648Y0234864D01*
X0103783Y0234807D01*
X0103917Y0234748D01*
X0104049Y0234684D01*
X0104179Y0234617D01*
X0104308Y0234547D01*
X0104435Y0234473D01*
X0104559Y0234396D01*
X0104682Y0234315D01*
X0104802Y0234231D01*
X0104920Y0234144D01*
X0105035Y0234054D01*
X0105148Y0233961D01*
X0105259Y0233864D01*
X0105367Y0233765D01*
X0105472Y0233663D01*
X0105574Y0233558D01*
X0105673Y0233450D01*
X0105770Y0233339D01*
X0105863Y0233226D01*
X0105953Y0233111D01*
X0106040Y0232993D01*
X0106124Y0232873D01*
X0106205Y0232750D01*
X0106282Y0232626D01*
X0106356Y0232499D01*
X0106426Y0232370D01*
X0106493Y0232240D01*
X0106557Y0232108D01*
X0106616Y0231974D01*
X0106673Y0231839D01*
X0106725Y0231702D01*
X0106774Y0231563D01*
X0106819Y0231424D01*
X0106860Y0231283D01*
X0106897Y0231141D01*
X0106930Y0230999D01*
X0106960Y0230855D01*
X0106986Y0230711D01*
X0107007Y0230566D01*
X0107025Y0230420D01*
X0107039Y0230274D01*
X0107049Y0230128D01*
X0107055Y0229982D01*
X0107057Y0229835D01*
X0107055Y0229688D01*
X0107049Y0229542D01*
X0107039Y0229396D01*
X0107025Y0229250D01*
X0107007Y0229104D01*
X0106986Y0228959D01*
X0106960Y0228815D01*
X0106930Y0228671D01*
X0106897Y0228529D01*
X0106860Y0228387D01*
X0106819Y0228246D01*
X0106774Y0228107D01*
X0106725Y0227968D01*
X0106673Y0227831D01*
X0106616Y0227696D01*
X0106557Y0227562D01*
X0106493Y0227430D01*
X0106426Y0227300D01*
X0106356Y0227171D01*
X0106282Y0227044D01*
X0106205Y0226920D01*
X0106124Y0226797D01*
X0106040Y0226677D01*
X0105953Y0226559D01*
X0105863Y0226444D01*
X0105770Y0226331D01*
X0105673Y0226220D01*
X0105574Y0226112D01*
X0105472Y0226007D01*
X0105367Y0225905D01*
X0105259Y0225806D01*
X0105148Y0225709D01*
X0105035Y0225616D01*
X0104920Y0225526D01*
X0104802Y0225439D01*
X0104682Y0225355D01*
X0104559Y0225274D01*
X0104435Y0225197D01*
X0104308Y0225123D01*
X0104179Y0225053D01*
X0104049Y0224986D01*
X0103917Y0224922D01*
X0103783Y0224863D01*
X0103648Y0224806D01*
X0103511Y0224754D01*
X0103372Y0224705D01*
X0103233Y0224660D01*
X0103092Y0224619D01*
X0102950Y0224582D01*
X0102808Y0224549D01*
X0102664Y0224519D01*
X0102520Y0224493D01*
X0102375Y0224472D01*
X0102229Y0224454D01*
X0102083Y0224440D01*
X0101937Y0224430D01*
X0101791Y0224424D01*
X0101644Y0224422D01*
X0101497Y0224424D01*
X0101351Y0224430D01*
X0101205Y0224440D01*
X0101059Y0224454D01*
X0100913Y0224472D01*
X0100768Y0224493D01*
X0100624Y0224519D01*
X0100480Y0224549D01*
X0100338Y0224582D01*
X0100196Y0224619D01*
X0100055Y0224660D01*
X0099916Y0224705D01*
X0099777Y0224754D01*
X0099640Y0224806D01*
X0099505Y0224863D01*
X0099371Y0224922D01*
X0099239Y0224986D01*
X0099109Y0225053D01*
X0098980Y0225123D01*
X0098853Y0225197D01*
X0098729Y0225274D01*
X0098606Y0225355D01*
X0098486Y0225439D01*
X0098368Y0225526D01*
X0098253Y0225616D01*
X0098140Y0225709D01*
X0098029Y0225806D01*
X0097921Y0225905D01*
X0097816Y0226007D01*
X0097714Y0226112D01*
X0097615Y0226220D01*
X0097518Y0226331D01*
X0097425Y0226444D01*
X0097335Y0226559D01*
X0097248Y0226677D01*
X0097164Y0226797D01*
X0097083Y0226920D01*
X0097006Y0227044D01*
X0096932Y0227171D01*
X0096862Y0227300D01*
X0096795Y0227430D01*
X0096731Y0227562D01*
X0096672Y0227696D01*
X0096615Y0227831D01*
X0096563Y0227968D01*
X0096514Y0228107D01*
X0096469Y0228246D01*
X0096428Y0228387D01*
X0096391Y0228529D01*
X0096358Y0228671D01*
X0096328Y0228815D01*
X0096302Y0228959D01*
X0096281Y0229104D01*
X0096263Y0229250D01*
X0096249Y0229396D01*
X0096239Y0229542D01*
X0096233Y0229688D01*
X0096231Y0229835D01*
X0324577Y0229835D02*
X0324579Y0229982D01*
X0324585Y0230128D01*
X0324595Y0230274D01*
X0324609Y0230420D01*
X0324627Y0230566D01*
X0324648Y0230711D01*
X0324674Y0230855D01*
X0324704Y0230999D01*
X0324737Y0231141D01*
X0324774Y0231283D01*
X0324815Y0231424D01*
X0324860Y0231563D01*
X0324909Y0231702D01*
X0324961Y0231839D01*
X0325018Y0231974D01*
X0325077Y0232108D01*
X0325141Y0232240D01*
X0325208Y0232370D01*
X0325278Y0232499D01*
X0325352Y0232626D01*
X0325429Y0232750D01*
X0325510Y0232873D01*
X0325594Y0232993D01*
X0325681Y0233111D01*
X0325771Y0233226D01*
X0325864Y0233339D01*
X0325961Y0233450D01*
X0326060Y0233558D01*
X0326162Y0233663D01*
X0326267Y0233765D01*
X0326375Y0233864D01*
X0326486Y0233961D01*
X0326599Y0234054D01*
X0326714Y0234144D01*
X0326832Y0234231D01*
X0326952Y0234315D01*
X0327075Y0234396D01*
X0327199Y0234473D01*
X0327326Y0234547D01*
X0327455Y0234617D01*
X0327585Y0234684D01*
X0327717Y0234748D01*
X0327851Y0234807D01*
X0327986Y0234864D01*
X0328123Y0234916D01*
X0328262Y0234965D01*
X0328401Y0235010D01*
X0328542Y0235051D01*
X0328684Y0235088D01*
X0328826Y0235121D01*
X0328970Y0235151D01*
X0329114Y0235177D01*
X0329259Y0235198D01*
X0329405Y0235216D01*
X0329551Y0235230D01*
X0329697Y0235240D01*
X0329843Y0235246D01*
X0329990Y0235248D01*
X0330137Y0235246D01*
X0330283Y0235240D01*
X0330429Y0235230D01*
X0330575Y0235216D01*
X0330721Y0235198D01*
X0330866Y0235177D01*
X0331010Y0235151D01*
X0331154Y0235121D01*
X0331296Y0235088D01*
X0331438Y0235051D01*
X0331579Y0235010D01*
X0331718Y0234965D01*
X0331857Y0234916D01*
X0331994Y0234864D01*
X0332129Y0234807D01*
X0332263Y0234748D01*
X0332395Y0234684D01*
X0332525Y0234617D01*
X0332654Y0234547D01*
X0332781Y0234473D01*
X0332905Y0234396D01*
X0333028Y0234315D01*
X0333148Y0234231D01*
X0333266Y0234144D01*
X0333381Y0234054D01*
X0333494Y0233961D01*
X0333605Y0233864D01*
X0333713Y0233765D01*
X0333818Y0233663D01*
X0333920Y0233558D01*
X0334019Y0233450D01*
X0334116Y0233339D01*
X0334209Y0233226D01*
X0334299Y0233111D01*
X0334386Y0232993D01*
X0334470Y0232873D01*
X0334551Y0232750D01*
X0334628Y0232626D01*
X0334702Y0232499D01*
X0334772Y0232370D01*
X0334839Y0232240D01*
X0334903Y0232108D01*
X0334962Y0231974D01*
X0335019Y0231839D01*
X0335071Y0231702D01*
X0335120Y0231563D01*
X0335165Y0231424D01*
X0335206Y0231283D01*
X0335243Y0231141D01*
X0335276Y0230999D01*
X0335306Y0230855D01*
X0335332Y0230711D01*
X0335353Y0230566D01*
X0335371Y0230420D01*
X0335385Y0230274D01*
X0335395Y0230128D01*
X0335401Y0229982D01*
X0335403Y0229835D01*
X0335401Y0229688D01*
X0335395Y0229542D01*
X0335385Y0229396D01*
X0335371Y0229250D01*
X0335353Y0229104D01*
X0335332Y0228959D01*
X0335306Y0228815D01*
X0335276Y0228671D01*
X0335243Y0228529D01*
X0335206Y0228387D01*
X0335165Y0228246D01*
X0335120Y0228107D01*
X0335071Y0227968D01*
X0335019Y0227831D01*
X0334962Y0227696D01*
X0334903Y0227562D01*
X0334839Y0227430D01*
X0334772Y0227300D01*
X0334702Y0227171D01*
X0334628Y0227044D01*
X0334551Y0226920D01*
X0334470Y0226797D01*
X0334386Y0226677D01*
X0334299Y0226559D01*
X0334209Y0226444D01*
X0334116Y0226331D01*
X0334019Y0226220D01*
X0333920Y0226112D01*
X0333818Y0226007D01*
X0333713Y0225905D01*
X0333605Y0225806D01*
X0333494Y0225709D01*
X0333381Y0225616D01*
X0333266Y0225526D01*
X0333148Y0225439D01*
X0333028Y0225355D01*
X0332905Y0225274D01*
X0332781Y0225197D01*
X0332654Y0225123D01*
X0332525Y0225053D01*
X0332395Y0224986D01*
X0332263Y0224922D01*
X0332129Y0224863D01*
X0331994Y0224806D01*
X0331857Y0224754D01*
X0331718Y0224705D01*
X0331579Y0224660D01*
X0331438Y0224619D01*
X0331296Y0224582D01*
X0331154Y0224549D01*
X0331010Y0224519D01*
X0330866Y0224493D01*
X0330721Y0224472D01*
X0330575Y0224454D01*
X0330429Y0224440D01*
X0330283Y0224430D01*
X0330137Y0224424D01*
X0329990Y0224422D01*
X0329843Y0224424D01*
X0329697Y0224430D01*
X0329551Y0224440D01*
X0329405Y0224454D01*
X0329259Y0224472D01*
X0329114Y0224493D01*
X0328970Y0224519D01*
X0328826Y0224549D01*
X0328684Y0224582D01*
X0328542Y0224619D01*
X0328401Y0224660D01*
X0328262Y0224705D01*
X0328123Y0224754D01*
X0327986Y0224806D01*
X0327851Y0224863D01*
X0327717Y0224922D01*
X0327585Y0224986D01*
X0327455Y0225053D01*
X0327326Y0225123D01*
X0327199Y0225197D01*
X0327075Y0225274D01*
X0326952Y0225355D01*
X0326832Y0225439D01*
X0326714Y0225526D01*
X0326599Y0225616D01*
X0326486Y0225709D01*
X0326375Y0225806D01*
X0326267Y0225905D01*
X0326162Y0226007D01*
X0326060Y0226112D01*
X0325961Y0226220D01*
X0325864Y0226331D01*
X0325771Y0226444D01*
X0325681Y0226559D01*
X0325594Y0226677D01*
X0325510Y0226797D01*
X0325429Y0226920D01*
X0325352Y0227044D01*
X0325278Y0227171D01*
X0325208Y0227300D01*
X0325141Y0227430D01*
X0325077Y0227562D01*
X0325018Y0227696D01*
X0324961Y0227831D01*
X0324909Y0227968D01*
X0324860Y0228107D01*
X0324815Y0228246D01*
X0324774Y0228387D01*
X0324737Y0228529D01*
X0324704Y0228671D01*
X0324674Y0228815D01*
X0324648Y0228959D01*
X0324627Y0229104D01*
X0324609Y0229250D01*
X0324595Y0229396D01*
X0324585Y0229542D01*
X0324579Y0229688D01*
X0324577Y0229835D01*
X0324577Y0422749D02*
X0324579Y0422896D01*
X0324585Y0423042D01*
X0324595Y0423188D01*
X0324609Y0423334D01*
X0324627Y0423480D01*
X0324648Y0423625D01*
X0324674Y0423769D01*
X0324704Y0423913D01*
X0324737Y0424055D01*
X0324774Y0424197D01*
X0324815Y0424338D01*
X0324860Y0424477D01*
X0324909Y0424616D01*
X0324961Y0424753D01*
X0325018Y0424888D01*
X0325077Y0425022D01*
X0325141Y0425154D01*
X0325208Y0425284D01*
X0325278Y0425413D01*
X0325352Y0425540D01*
X0325429Y0425664D01*
X0325510Y0425787D01*
X0325594Y0425907D01*
X0325681Y0426025D01*
X0325771Y0426140D01*
X0325864Y0426253D01*
X0325961Y0426364D01*
X0326060Y0426472D01*
X0326162Y0426577D01*
X0326267Y0426679D01*
X0326375Y0426778D01*
X0326486Y0426875D01*
X0326599Y0426968D01*
X0326714Y0427058D01*
X0326832Y0427145D01*
X0326952Y0427229D01*
X0327075Y0427310D01*
X0327199Y0427387D01*
X0327326Y0427461D01*
X0327455Y0427531D01*
X0327585Y0427598D01*
X0327717Y0427662D01*
X0327851Y0427721D01*
X0327986Y0427778D01*
X0328123Y0427830D01*
X0328262Y0427879D01*
X0328401Y0427924D01*
X0328542Y0427965D01*
X0328684Y0428002D01*
X0328826Y0428035D01*
X0328970Y0428065D01*
X0329114Y0428091D01*
X0329259Y0428112D01*
X0329405Y0428130D01*
X0329551Y0428144D01*
X0329697Y0428154D01*
X0329843Y0428160D01*
X0329990Y0428162D01*
X0330137Y0428160D01*
X0330283Y0428154D01*
X0330429Y0428144D01*
X0330575Y0428130D01*
X0330721Y0428112D01*
X0330866Y0428091D01*
X0331010Y0428065D01*
X0331154Y0428035D01*
X0331296Y0428002D01*
X0331438Y0427965D01*
X0331579Y0427924D01*
X0331718Y0427879D01*
X0331857Y0427830D01*
X0331994Y0427778D01*
X0332129Y0427721D01*
X0332263Y0427662D01*
X0332395Y0427598D01*
X0332525Y0427531D01*
X0332654Y0427461D01*
X0332781Y0427387D01*
X0332905Y0427310D01*
X0333028Y0427229D01*
X0333148Y0427145D01*
X0333266Y0427058D01*
X0333381Y0426968D01*
X0333494Y0426875D01*
X0333605Y0426778D01*
X0333713Y0426679D01*
X0333818Y0426577D01*
X0333920Y0426472D01*
X0334019Y0426364D01*
X0334116Y0426253D01*
X0334209Y0426140D01*
X0334299Y0426025D01*
X0334386Y0425907D01*
X0334470Y0425787D01*
X0334551Y0425664D01*
X0334628Y0425540D01*
X0334702Y0425413D01*
X0334772Y0425284D01*
X0334839Y0425154D01*
X0334903Y0425022D01*
X0334962Y0424888D01*
X0335019Y0424753D01*
X0335071Y0424616D01*
X0335120Y0424477D01*
X0335165Y0424338D01*
X0335206Y0424197D01*
X0335243Y0424055D01*
X0335276Y0423913D01*
X0335306Y0423769D01*
X0335332Y0423625D01*
X0335353Y0423480D01*
X0335371Y0423334D01*
X0335385Y0423188D01*
X0335395Y0423042D01*
X0335401Y0422896D01*
X0335403Y0422749D01*
X0335401Y0422602D01*
X0335395Y0422456D01*
X0335385Y0422310D01*
X0335371Y0422164D01*
X0335353Y0422018D01*
X0335332Y0421873D01*
X0335306Y0421729D01*
X0335276Y0421585D01*
X0335243Y0421443D01*
X0335206Y0421301D01*
X0335165Y0421160D01*
X0335120Y0421021D01*
X0335071Y0420882D01*
X0335019Y0420745D01*
X0334962Y0420610D01*
X0334903Y0420476D01*
X0334839Y0420344D01*
X0334772Y0420214D01*
X0334702Y0420085D01*
X0334628Y0419958D01*
X0334551Y0419834D01*
X0334470Y0419711D01*
X0334386Y0419591D01*
X0334299Y0419473D01*
X0334209Y0419358D01*
X0334116Y0419245D01*
X0334019Y0419134D01*
X0333920Y0419026D01*
X0333818Y0418921D01*
X0333713Y0418819D01*
X0333605Y0418720D01*
X0333494Y0418623D01*
X0333381Y0418530D01*
X0333266Y0418440D01*
X0333148Y0418353D01*
X0333028Y0418269D01*
X0332905Y0418188D01*
X0332781Y0418111D01*
X0332654Y0418037D01*
X0332525Y0417967D01*
X0332395Y0417900D01*
X0332263Y0417836D01*
X0332129Y0417777D01*
X0331994Y0417720D01*
X0331857Y0417668D01*
X0331718Y0417619D01*
X0331579Y0417574D01*
X0331438Y0417533D01*
X0331296Y0417496D01*
X0331154Y0417463D01*
X0331010Y0417433D01*
X0330866Y0417407D01*
X0330721Y0417386D01*
X0330575Y0417368D01*
X0330429Y0417354D01*
X0330283Y0417344D01*
X0330137Y0417338D01*
X0329990Y0417336D01*
X0329843Y0417338D01*
X0329697Y0417344D01*
X0329551Y0417354D01*
X0329405Y0417368D01*
X0329259Y0417386D01*
X0329114Y0417407D01*
X0328970Y0417433D01*
X0328826Y0417463D01*
X0328684Y0417496D01*
X0328542Y0417533D01*
X0328401Y0417574D01*
X0328262Y0417619D01*
X0328123Y0417668D01*
X0327986Y0417720D01*
X0327851Y0417777D01*
X0327717Y0417836D01*
X0327585Y0417900D01*
X0327455Y0417967D01*
X0327326Y0418037D01*
X0327199Y0418111D01*
X0327075Y0418188D01*
X0326952Y0418269D01*
X0326832Y0418353D01*
X0326714Y0418440D01*
X0326599Y0418530D01*
X0326486Y0418623D01*
X0326375Y0418720D01*
X0326267Y0418819D01*
X0326162Y0418921D01*
X0326060Y0419026D01*
X0325961Y0419134D01*
X0325864Y0419245D01*
X0325771Y0419358D01*
X0325681Y0419473D01*
X0325594Y0419591D01*
X0325510Y0419711D01*
X0325429Y0419834D01*
X0325352Y0419958D01*
X0325278Y0420085D01*
X0325208Y0420214D01*
X0325141Y0420344D01*
X0325077Y0420476D01*
X0325018Y0420610D01*
X0324961Y0420745D01*
X0324909Y0420882D01*
X0324860Y0421021D01*
X0324815Y0421160D01*
X0324774Y0421301D01*
X0324737Y0421443D01*
X0324704Y0421585D01*
X0324674Y0421729D01*
X0324648Y0421873D01*
X0324627Y0422018D01*
X0324609Y0422164D01*
X0324595Y0422310D01*
X0324585Y0422456D01*
X0324579Y0422602D01*
X0324577Y0422749D01*
D14*
X0329990Y0422749D03*
X0329990Y0229835D03*
X0101644Y0229835D03*
X0101644Y0422749D03*
D15*
X0310817Y0234835D03*
X0324872Y0264324D03*
D16*
X0334872Y0264324D03*
X0300870Y0234828D03*
X0300870Y0224828D03*
X0290870Y0224828D03*
X0280870Y0224828D03*
X0280870Y0234828D03*
X0290870Y0234828D03*
X0270870Y0234828D03*
X0270870Y0224828D03*
X0260870Y0224828D03*
X0250870Y0224828D03*
X0250870Y0234828D03*
X0260870Y0234828D03*
X0240870Y0234828D03*
X0240870Y0224828D03*
X0230870Y0224828D03*
X0220870Y0224828D03*
X0210870Y0224828D03*
X0210870Y0234828D03*
X0220870Y0234828D03*
X0230870Y0234828D03*
X0200870Y0234828D03*
X0200870Y0224828D03*
X0190870Y0224828D03*
X0180870Y0224828D03*
X0180870Y0234828D03*
X0190870Y0234828D03*
X0170870Y0234828D03*
X0170870Y0224828D03*
X0160870Y0224828D03*
X0150870Y0224828D03*
X0150870Y0234828D03*
X0160870Y0234828D03*
X0140870Y0234828D03*
X0140870Y0224828D03*
X0130870Y0224828D03*
X0120870Y0224828D03*
X0120870Y0234828D03*
X0130870Y0234828D03*
X0310870Y0224828D03*
D17*
X0310762Y0224902D03*
X0310762Y0224902D03*
X0310762Y0234902D03*
X0310762Y0234902D03*
X0300762Y0234902D03*
X0300762Y0234902D03*
X0300762Y0224902D03*
X0300762Y0224902D03*
X0290762Y0224902D03*
X0290762Y0224902D03*
X0280762Y0224902D03*
X0280762Y0224902D03*
X0280762Y0234902D03*
X0280762Y0234902D03*
X0290762Y0234902D03*
X0290762Y0234902D03*
X0270762Y0234902D03*
X0270762Y0234902D03*
X0270762Y0224902D03*
X0270762Y0224902D03*
X0260762Y0224902D03*
X0260762Y0224902D03*
X0250762Y0224902D03*
X0250762Y0224902D03*
X0250762Y0234902D03*
X0250762Y0234902D03*
X0260762Y0234902D03*
X0260762Y0234902D03*
X0240762Y0234902D03*
X0240762Y0234902D03*
X0240762Y0224902D03*
X0240762Y0224902D03*
X0230762Y0224902D03*
X0230762Y0224902D03*
X0220762Y0224902D03*
X0220762Y0224902D03*
X0220762Y0234902D03*
X0220762Y0234902D03*
X0230762Y0234902D03*
X0230762Y0234902D03*
X0210762Y0234902D03*
X0210762Y0234902D03*
X0210762Y0224902D03*
X0210762Y0224902D03*
X0200762Y0224902D03*
X0200762Y0224902D03*
X0190762Y0224902D03*
X0190762Y0224902D03*
X0180762Y0224902D03*
X0180762Y0224902D03*
X0180762Y0234902D03*
X0180762Y0234902D03*
X0190762Y0234902D03*
X0190762Y0234902D03*
X0200762Y0234902D03*
X0200762Y0234902D03*
X0170762Y0234902D03*
X0170762Y0234902D03*
X0170762Y0224902D03*
X0170762Y0224902D03*
X0160762Y0224902D03*
X0160762Y0224902D03*
X0150762Y0224902D03*
X0150762Y0224902D03*
X0150762Y0234902D03*
X0150762Y0234902D03*
X0160762Y0234902D03*
X0160762Y0234902D03*
X0140762Y0234902D03*
X0140762Y0234902D03*
X0140762Y0224902D03*
X0140762Y0224902D03*
X0130762Y0224902D03*
X0130762Y0224902D03*
X0120762Y0224902D03*
X0120762Y0224902D03*
X0120762Y0234902D03*
X0120762Y0234902D03*
X0130762Y0234902D03*
X0130762Y0234902D03*
X0308262Y0176402D03*
X0308262Y0166402D03*
X0318262Y0166402D03*
X0318262Y0176402D03*
X0318262Y0156402D03*
X0318262Y0146402D03*
X0318262Y0136402D03*
X0318262Y0126402D03*
X0318262Y0116402D03*
X0308262Y0116402D03*
X0308262Y0126402D03*
X0308262Y0136402D03*
X0308262Y0146402D03*
X0308262Y0156402D03*
X0308262Y0106402D03*
X0308262Y0096402D03*
X0308262Y0086402D03*
X0308262Y0076402D03*
X0318262Y0076402D03*
X0318262Y0086402D03*
X0318262Y0096402D03*
X0318262Y0106402D03*
X0318262Y0066402D03*
X0318262Y0056402D03*
X0308262Y0056402D03*
X0308262Y0066402D03*
D18*
X0341683Y0079442D03*
X0341683Y0099442D03*
X0368250Y0089442D03*
X0341683Y0149442D03*
X0341683Y0169442D03*
X0368250Y0159442D03*
X0306683Y0269442D03*
X0306683Y0289442D03*
X0333250Y0279442D03*
X0306683Y0364442D03*
X0306683Y0384442D03*
X0333250Y0374442D03*
X0141841Y0169363D03*
X0141841Y0149363D03*
X0115274Y0159363D03*
X0141841Y0099363D03*
X0141841Y0079363D03*
X0115274Y0089363D03*
X0106841Y0269363D03*
X0106841Y0289363D03*
X0080274Y0279363D03*
X0106841Y0364363D03*
X0106841Y0384363D03*
X0080274Y0374363D03*
D19*
X0125561Y0336170D02*
X0125561Y0330233D01*
X0135561Y0330233D02*
X0135561Y0336170D01*
X0145561Y0336170D02*
X0145561Y0330233D01*
X0033530Y0140702D02*
X0027593Y0140702D01*
X0027593Y0130702D02*
X0033530Y0130702D01*
X0033530Y0120702D02*
X0027593Y0120702D01*
X0363793Y0264402D02*
X0369730Y0264402D01*
X0369730Y0274402D02*
X0363793Y0274402D01*
X0363793Y0284402D02*
X0369730Y0284402D01*
D20*
X0388237Y0239245D02*
X0395287Y0239245D01*
X0395287Y0219560D02*
X0388237Y0219560D01*
X0393237Y0199245D02*
X0400287Y0199245D01*
X0400287Y0179560D02*
X0393237Y0179560D01*
X0393237Y0079245D02*
X0400287Y0079245D01*
X0400287Y0059560D02*
X0393237Y0059560D01*
X0395287Y0414560D02*
X0388237Y0414560D01*
X0388237Y0434245D02*
X0395287Y0434245D01*
X0030287Y0434245D02*
X0023237Y0434245D01*
X0023237Y0414560D02*
X0030287Y0414560D01*
X0030287Y0239245D02*
X0023237Y0239245D01*
X0023237Y0219560D02*
X0030287Y0219560D01*
X0025287Y0199245D02*
X0018237Y0199245D01*
X0018237Y0179560D02*
X0025287Y0179560D01*
X0025287Y0079245D02*
X0018237Y0079245D01*
X0018237Y0059560D02*
X0025287Y0059560D01*
D21*
X0202530Y0251489D03*
X0209419Y0251489D03*
X0218278Y0251489D03*
X0225167Y0251489D03*
X0225167Y0263300D03*
X0218278Y0263300D03*
X0209419Y0263300D03*
X0202530Y0263300D03*
X0202530Y0275111D03*
X0209419Y0275111D03*
X0218278Y0275111D03*
X0225167Y0275111D03*
X0225167Y0286922D03*
X0218278Y0286922D03*
X0209419Y0286922D03*
X0202530Y0286922D03*
X0202530Y0298733D03*
X0209419Y0298733D03*
X0218278Y0298733D03*
X0225167Y0298733D03*
X0221506Y0384402D03*
X0214616Y0384402D03*
X0234616Y0384402D03*
X0241506Y0384402D03*
X0380817Y0251902D03*
X0387707Y0251902D03*
D22*
X0284321Y0251784D03*
X0284321Y0249225D03*
X0284321Y0246666D03*
X0284321Y0254343D03*
X0284321Y0256902D03*
X0284321Y0259461D03*
X0284321Y0262020D03*
X0284321Y0264580D03*
X0284321Y0267139D03*
X0284321Y0269698D03*
X0284321Y0272257D03*
X0284321Y0274816D03*
X0284321Y0277375D03*
X0284321Y0279934D03*
X0261486Y0279934D03*
X0261486Y0277375D03*
X0261486Y0274816D03*
X0261486Y0272257D03*
X0261486Y0269698D03*
X0261486Y0267139D03*
X0261486Y0264580D03*
X0261486Y0262020D03*
X0261486Y0259461D03*
X0261486Y0256902D03*
X0261486Y0254343D03*
X0261486Y0251784D03*
X0261486Y0249225D03*
X0261486Y0246666D03*
D23*
X0263061Y0336802D02*
X0263061Y0342002D01*
X0253061Y0342002D02*
X0253061Y0336802D01*
X0243061Y0336802D02*
X0243061Y0342002D01*
X0233061Y0342002D02*
X0233061Y0336802D01*
X0223061Y0336802D02*
X0223061Y0342002D01*
X0213061Y0342002D02*
X0213061Y0336802D01*
X0203061Y0336802D02*
X0203061Y0342002D01*
X0193061Y0342002D02*
X0193061Y0336802D01*
X0193061Y0366802D02*
X0193061Y0372002D01*
X0203061Y0372002D02*
X0203061Y0366802D01*
X0213061Y0366802D02*
X0213061Y0372002D01*
X0223061Y0372002D02*
X0223061Y0366802D01*
X0233061Y0366802D02*
X0233061Y0372002D01*
X0243061Y0372002D02*
X0243061Y0366802D01*
X0253061Y0366802D02*
X0253061Y0372002D01*
X0263061Y0372002D02*
X0263061Y0366802D01*
D24*
X0266261Y0390091D02*
X0274861Y0390091D01*
X0274861Y0413713D02*
X0266261Y0413713D01*
X0251663Y0406202D02*
X0251663Y0397602D01*
X0374951Y0113702D02*
X0374951Y0105102D01*
X0382462Y0090505D02*
X0391062Y0090505D01*
X0398573Y0105102D02*
X0398573Y0113702D01*
D25*
X0398762Y0109402D03*
X0375262Y0109402D03*
X0270561Y0390402D03*
X0270561Y0413902D03*
D26*
X0252061Y0401902D03*
X0386762Y0090902D03*
D27*
X0366912Y0216602D02*
X0366912Y0222602D01*
X0349112Y0222602D02*
X0349112Y0216602D01*
X0349112Y0242202D02*
X0349112Y0248202D01*
X0366912Y0248202D02*
X0366912Y0242202D01*
X0255512Y0217402D02*
X0255512Y0211402D01*
X0245512Y0211402D02*
X0245512Y0217402D01*
X0235512Y0217402D02*
X0235512Y0211402D01*
X0225512Y0211402D02*
X0225512Y0217402D01*
X0215512Y0217402D02*
X0215512Y0211402D01*
X0205512Y0211402D02*
X0205512Y0217402D01*
X0195512Y0217402D02*
X0195512Y0211402D01*
X0185512Y0211402D02*
X0185512Y0217402D01*
X0175512Y0217402D02*
X0175512Y0211402D01*
X0080662Y0213602D02*
X0080662Y0219602D01*
X0062862Y0219602D02*
X0062862Y0213602D01*
X0062862Y0239202D02*
X0062862Y0245202D01*
X0080662Y0245202D02*
X0080662Y0239202D01*
X0080662Y0408602D02*
X0080662Y0414602D01*
X0062862Y0414602D02*
X0062862Y0408602D01*
X0062862Y0434202D02*
X0062862Y0440202D01*
X0080662Y0440202D02*
X0080662Y0434202D01*
X0347862Y0434202D02*
X0347862Y0440202D01*
X0365662Y0440202D02*
X0365662Y0434202D01*
X0365662Y0414602D02*
X0365662Y0408602D01*
X0347862Y0408602D02*
X0347862Y0414602D01*
D28*
X0366762Y0384402D03*
X0377262Y0246402D03*
X0051762Y0264402D03*
X0046762Y0424402D03*
D29*
X0046762Y0414402D03*
X0051762Y0254402D03*
X0366762Y0394402D03*
X0377262Y0256402D03*
D30*
X0289337Y0159402D02*
X0284187Y0159402D01*
X0284187Y0149402D02*
X0289337Y0149402D01*
X0289337Y0139402D02*
X0284187Y0139402D01*
X0284187Y0129402D02*
X0289337Y0129402D01*
X0289337Y0119402D02*
X0284187Y0119402D01*
X0284187Y0109402D02*
X0289337Y0109402D01*
X0289337Y0099402D02*
X0284187Y0099402D01*
X0284187Y0089402D02*
X0289337Y0089402D01*
X0259337Y0089402D02*
X0254187Y0089402D01*
X0254187Y0099402D02*
X0259337Y0099402D01*
X0259337Y0109402D02*
X0254187Y0109402D01*
X0254187Y0119402D02*
X0259337Y0119402D01*
X0259337Y0129402D02*
X0254187Y0129402D01*
X0254187Y0139402D02*
X0259337Y0139402D01*
X0259337Y0149402D02*
X0254187Y0149402D01*
X0254187Y0159402D02*
X0259337Y0159402D01*
X0194337Y0159402D02*
X0189187Y0159402D01*
X0189187Y0149402D02*
X0194337Y0149402D01*
X0194337Y0139402D02*
X0189187Y0139402D01*
X0189187Y0129402D02*
X0194337Y0129402D01*
X0194337Y0119402D02*
X0189187Y0119402D01*
X0189187Y0109402D02*
X0194337Y0109402D01*
X0194337Y0099402D02*
X0189187Y0099402D01*
X0189187Y0089402D02*
X0194337Y0089402D01*
X0164337Y0089402D02*
X0159187Y0089402D01*
X0159187Y0099402D02*
X0164337Y0099402D01*
X0164337Y0109402D02*
X0159187Y0109402D01*
X0159187Y0119402D02*
X0164337Y0119402D01*
X0164337Y0129402D02*
X0159187Y0129402D01*
X0159187Y0139402D02*
X0164337Y0139402D01*
X0164337Y0149402D02*
X0159187Y0149402D01*
X0159187Y0159402D02*
X0164337Y0159402D01*
D31*
X0088162Y0129402D02*
X0080362Y0129402D01*
X0080162Y0105902D02*
X0072362Y0105902D01*
X0032162Y0105902D02*
X0024362Y0105902D01*
X0024362Y0152902D02*
X0032162Y0152902D01*
X0072362Y0152902D02*
X0080162Y0152902D01*
D32*
X0056512Y0154277D02*
X0056512Y0162527D01*
X0056512Y0102527D02*
X0056512Y0094277D01*
X0190137Y0060902D02*
X0198387Y0060902D01*
X0250137Y0060902D02*
X0258387Y0060902D01*
D33*
X0063311Y0064002D02*
X0063311Y0071402D01*
X0053311Y0071402D02*
X0053311Y0064002D01*
D34*
X0045561Y0088202D03*
X0080561Y0073202D03*
X0085561Y0065702D03*
X0090561Y0073202D03*
X0100561Y0063202D03*
X0085561Y0088202D03*
X0140561Y0063202D03*
D35*
X0269715Y0059952D03*
X0276407Y0059952D03*
D36*
X0236978Y0111686D03*
X0236978Y0114245D03*
X0236978Y0116804D03*
X0236978Y0119363D03*
X0236978Y0121922D03*
X0236978Y0124481D03*
X0236978Y0127040D03*
X0236978Y0129599D03*
X0236978Y0132158D03*
X0236978Y0134717D03*
X0214144Y0134717D03*
X0214144Y0132158D03*
X0214144Y0129599D03*
X0214144Y0127040D03*
X0214144Y0124481D03*
X0214144Y0121922D03*
X0214144Y0119363D03*
X0214144Y0116804D03*
X0214144Y0114245D03*
X0214144Y0111686D03*
D37*
X0120512Y0195402D03*
X0101762Y0229902D03*
X0101762Y0422902D03*
X0313512Y0195652D03*
X0330262Y0229902D03*
X0330262Y0422902D03*
D38*
X0396762Y0144402D03*
D39*
X0396762Y0164402D03*
X0228061Y0431902D03*
X0190561Y0431902D03*
D40*
X0219012Y0401902D03*
X0208061Y0384402D03*
X0196762Y0379402D03*
X0158061Y0341902D03*
X0156762Y0329402D03*
X0181762Y0329402D03*
X0184262Y0333652D03*
X0186762Y0329402D03*
X0151762Y0294402D03*
X0161762Y0284402D03*
X0140012Y0293402D03*
X0133262Y0287652D03*
X0121762Y0287402D03*
X0123061Y0294402D03*
X0122512Y0272152D03*
X0133262Y0272402D03*
X0106762Y0254402D03*
X0060512Y0260652D03*
X0059012Y0265152D03*
X0031762Y0264402D03*
X0026762Y0264402D03*
X0021762Y0264402D03*
X0021762Y0254402D03*
X0021762Y0249402D03*
X0025512Y0282402D03*
X0059811Y0200452D03*
X0043061Y0195702D03*
X0075561Y0198202D03*
X0078762Y0171152D03*
X0110561Y0068202D03*
X0185561Y0070702D03*
X0295561Y0084702D03*
X0371762Y0129402D03*
X0371762Y0139402D03*
X0326762Y0184402D03*
X0300561Y0165702D03*
X0296762Y0184402D03*
X0285246Y0242402D03*
X0290561Y0249902D03*
X0294526Y0246552D03*
X0299561Y0245902D03*
X0298012Y0250902D03*
X0293061Y0259402D03*
X0290061Y0255652D03*
X0274762Y0262402D03*
X0278262Y0274402D03*
X0261093Y0282985D03*
X0261811Y0297902D03*
X0261561Y0302902D03*
X0261762Y0309402D03*
X0271762Y0304402D03*
X0271762Y0299402D03*
X0271762Y0314402D03*
X0271762Y0329402D03*
X0289262Y0309402D03*
X0289262Y0302402D03*
X0289262Y0296902D03*
X0301762Y0304402D03*
X0306762Y0304402D03*
X0296762Y0329402D03*
X0341762Y0334402D03*
X0346762Y0329402D03*
X0363061Y0318202D03*
X0358061Y0298202D03*
X0384262Y0266902D03*
X0391762Y0266902D03*
X0399262Y0266902D03*
X0393762Y0249402D03*
X0358762Y0256902D03*
X0321762Y0249402D03*
X0255561Y0244402D03*
X0229346Y0251800D03*
X0229596Y0263300D03*
X0229596Y0275111D03*
X0229596Y0286922D03*
X0229596Y0298733D03*
X0196762Y0270402D03*
X0195561Y0264402D03*
X0193061Y0256902D03*
X0189762Y0250402D03*
X0185561Y0266902D03*
X0116762Y0329402D03*
X0116762Y0334402D03*
X0111762Y0334402D03*
X0056762Y0379402D03*
X0036762Y0389402D03*
X0031762Y0389402D03*
X0026762Y0389402D03*
X0027762Y0371902D03*
X0033262Y0371902D03*
X0041762Y0399402D03*
X0027712Y0406252D03*
X0076762Y0399402D03*
X0321762Y0404402D03*
X0351762Y0369902D03*
X0363061Y0345702D03*
X0390561Y0335702D03*
X0393061Y0305702D03*
X0388061Y0363202D03*
X0386762Y0389402D03*
X0381762Y0389402D03*
X0391762Y0389402D03*
X0396762Y0404402D03*
X0401762Y0404402D03*
D41*
X0040561Y0359402D03*
X0040561Y0349402D03*
X0040561Y0339402D03*
X0040561Y0329402D03*
X0040561Y0319402D03*
X0040561Y0309402D03*
X0040561Y0299402D03*
X0040561Y0289402D03*
D42*
X0030561Y0289402D03*
X0030561Y0299402D03*
X0020561Y0299402D03*
X0020561Y0289402D03*
X0020561Y0309402D03*
X0020561Y0319402D03*
X0020561Y0329402D03*
X0020561Y0339402D03*
X0030561Y0339402D03*
X0030561Y0329402D03*
X0030561Y0319402D03*
X0030561Y0309402D03*
X0050561Y0309402D03*
X0050561Y0319402D03*
X0050561Y0329402D03*
X0050561Y0339402D03*
X0060561Y0339402D03*
X0060561Y0329402D03*
X0060561Y0319402D03*
X0060561Y0309402D03*
X0060561Y0299402D03*
X0060561Y0289402D03*
X0050561Y0289402D03*
X0050561Y0299402D03*
X0050561Y0349402D03*
X0050561Y0359402D03*
X0060561Y0359402D03*
X0060561Y0349402D03*
X0030561Y0349402D03*
X0030561Y0359402D03*
X0020561Y0359402D03*
X0020561Y0349402D03*
X0200561Y0431902D03*
X0210561Y0431902D03*
D43*
X0238061Y0431902D03*
X0396762Y0154402D03*
D44*
X0396762Y0134402D03*
X0396762Y0124402D03*
D45*
X0228061Y0118202D03*
M02*
