G75*
%MOIN*%
%OFA0B0*%
%FSLAX25Y25*%
%IPPOS*%
%LPD*%
%AMOC8*
5,1,8,0,0,1.08239X$1,22.5*
%
%ADD10C,0.01000*%
%ADD11C,0.05000*%
%ADD12R,0.23622X0.98425*%
%ADD13C,0.00000*%
%ADD14R,0.04134X0.04252*%
%ADD15R,0.04724X0.01378*%
%ADD16R,0.04331X0.03937*%
%ADD17R,0.04724X0.01575*%
D10*
X0013061Y0050702D02*
X0013061Y0208182D01*
X0406762Y0208182D01*
X0406762Y0444402D01*
X0174478Y0444402D01*
X0150856Y0444402D01*
X0150856Y0345977D01*
X0174478Y0345977D01*
X0174478Y0444402D01*
X0150856Y0444402D02*
X0013061Y0444402D01*
X0013061Y0208182D01*
X0013061Y0050702D02*
X0406762Y0050702D01*
X0406762Y0208182D01*
D11*
X0387077Y0298733D02*
X0367392Y0298733D01*
X0367392Y0326292D02*
X0387077Y0326292D01*
X0387077Y0353851D02*
X0367392Y0353851D01*
X0071561Y0194952D02*
X0071561Y0186452D01*
X0060561Y0186202D02*
X0060561Y0194702D01*
X0049311Y0194952D02*
X0049311Y0186452D01*
D12*
X0162667Y0395190D03*
D13*
X0096231Y0422749D02*
X0096233Y0422896D01*
X0096239Y0423042D01*
X0096249Y0423188D01*
X0096263Y0423334D01*
X0096281Y0423480D01*
X0096302Y0423625D01*
X0096328Y0423769D01*
X0096358Y0423913D01*
X0096391Y0424055D01*
X0096428Y0424197D01*
X0096469Y0424338D01*
X0096514Y0424477D01*
X0096563Y0424616D01*
X0096615Y0424753D01*
X0096672Y0424888D01*
X0096731Y0425022D01*
X0096795Y0425154D01*
X0096862Y0425284D01*
X0096932Y0425413D01*
X0097006Y0425540D01*
X0097083Y0425664D01*
X0097164Y0425787D01*
X0097248Y0425907D01*
X0097335Y0426025D01*
X0097425Y0426140D01*
X0097518Y0426253D01*
X0097615Y0426364D01*
X0097714Y0426472D01*
X0097816Y0426577D01*
X0097921Y0426679D01*
X0098029Y0426778D01*
X0098140Y0426875D01*
X0098253Y0426968D01*
X0098368Y0427058D01*
X0098486Y0427145D01*
X0098606Y0427229D01*
X0098729Y0427310D01*
X0098853Y0427387D01*
X0098980Y0427461D01*
X0099109Y0427531D01*
X0099239Y0427598D01*
X0099371Y0427662D01*
X0099505Y0427721D01*
X0099640Y0427778D01*
X0099777Y0427830D01*
X0099916Y0427879D01*
X0100055Y0427924D01*
X0100196Y0427965D01*
X0100338Y0428002D01*
X0100480Y0428035D01*
X0100624Y0428065D01*
X0100768Y0428091D01*
X0100913Y0428112D01*
X0101059Y0428130D01*
X0101205Y0428144D01*
X0101351Y0428154D01*
X0101497Y0428160D01*
X0101644Y0428162D01*
X0101791Y0428160D01*
X0101937Y0428154D01*
X0102083Y0428144D01*
X0102229Y0428130D01*
X0102375Y0428112D01*
X0102520Y0428091D01*
X0102664Y0428065D01*
X0102808Y0428035D01*
X0102950Y0428002D01*
X0103092Y0427965D01*
X0103233Y0427924D01*
X0103372Y0427879D01*
X0103511Y0427830D01*
X0103648Y0427778D01*
X0103783Y0427721D01*
X0103917Y0427662D01*
X0104049Y0427598D01*
X0104179Y0427531D01*
X0104308Y0427461D01*
X0104435Y0427387D01*
X0104559Y0427310D01*
X0104682Y0427229D01*
X0104802Y0427145D01*
X0104920Y0427058D01*
X0105035Y0426968D01*
X0105148Y0426875D01*
X0105259Y0426778D01*
X0105367Y0426679D01*
X0105472Y0426577D01*
X0105574Y0426472D01*
X0105673Y0426364D01*
X0105770Y0426253D01*
X0105863Y0426140D01*
X0105953Y0426025D01*
X0106040Y0425907D01*
X0106124Y0425787D01*
X0106205Y0425664D01*
X0106282Y0425540D01*
X0106356Y0425413D01*
X0106426Y0425284D01*
X0106493Y0425154D01*
X0106557Y0425022D01*
X0106616Y0424888D01*
X0106673Y0424753D01*
X0106725Y0424616D01*
X0106774Y0424477D01*
X0106819Y0424338D01*
X0106860Y0424197D01*
X0106897Y0424055D01*
X0106930Y0423913D01*
X0106960Y0423769D01*
X0106986Y0423625D01*
X0107007Y0423480D01*
X0107025Y0423334D01*
X0107039Y0423188D01*
X0107049Y0423042D01*
X0107055Y0422896D01*
X0107057Y0422749D01*
X0107055Y0422602D01*
X0107049Y0422456D01*
X0107039Y0422310D01*
X0107025Y0422164D01*
X0107007Y0422018D01*
X0106986Y0421873D01*
X0106960Y0421729D01*
X0106930Y0421585D01*
X0106897Y0421443D01*
X0106860Y0421301D01*
X0106819Y0421160D01*
X0106774Y0421021D01*
X0106725Y0420882D01*
X0106673Y0420745D01*
X0106616Y0420610D01*
X0106557Y0420476D01*
X0106493Y0420344D01*
X0106426Y0420214D01*
X0106356Y0420085D01*
X0106282Y0419958D01*
X0106205Y0419834D01*
X0106124Y0419711D01*
X0106040Y0419591D01*
X0105953Y0419473D01*
X0105863Y0419358D01*
X0105770Y0419245D01*
X0105673Y0419134D01*
X0105574Y0419026D01*
X0105472Y0418921D01*
X0105367Y0418819D01*
X0105259Y0418720D01*
X0105148Y0418623D01*
X0105035Y0418530D01*
X0104920Y0418440D01*
X0104802Y0418353D01*
X0104682Y0418269D01*
X0104559Y0418188D01*
X0104435Y0418111D01*
X0104308Y0418037D01*
X0104179Y0417967D01*
X0104049Y0417900D01*
X0103917Y0417836D01*
X0103783Y0417777D01*
X0103648Y0417720D01*
X0103511Y0417668D01*
X0103372Y0417619D01*
X0103233Y0417574D01*
X0103092Y0417533D01*
X0102950Y0417496D01*
X0102808Y0417463D01*
X0102664Y0417433D01*
X0102520Y0417407D01*
X0102375Y0417386D01*
X0102229Y0417368D01*
X0102083Y0417354D01*
X0101937Y0417344D01*
X0101791Y0417338D01*
X0101644Y0417336D01*
X0101497Y0417338D01*
X0101351Y0417344D01*
X0101205Y0417354D01*
X0101059Y0417368D01*
X0100913Y0417386D01*
X0100768Y0417407D01*
X0100624Y0417433D01*
X0100480Y0417463D01*
X0100338Y0417496D01*
X0100196Y0417533D01*
X0100055Y0417574D01*
X0099916Y0417619D01*
X0099777Y0417668D01*
X0099640Y0417720D01*
X0099505Y0417777D01*
X0099371Y0417836D01*
X0099239Y0417900D01*
X0099109Y0417967D01*
X0098980Y0418037D01*
X0098853Y0418111D01*
X0098729Y0418188D01*
X0098606Y0418269D01*
X0098486Y0418353D01*
X0098368Y0418440D01*
X0098253Y0418530D01*
X0098140Y0418623D01*
X0098029Y0418720D01*
X0097921Y0418819D01*
X0097816Y0418921D01*
X0097714Y0419026D01*
X0097615Y0419134D01*
X0097518Y0419245D01*
X0097425Y0419358D01*
X0097335Y0419473D01*
X0097248Y0419591D01*
X0097164Y0419711D01*
X0097083Y0419834D01*
X0097006Y0419958D01*
X0096932Y0420085D01*
X0096862Y0420214D01*
X0096795Y0420344D01*
X0096731Y0420476D01*
X0096672Y0420610D01*
X0096615Y0420745D01*
X0096563Y0420882D01*
X0096514Y0421021D01*
X0096469Y0421160D01*
X0096428Y0421301D01*
X0096391Y0421443D01*
X0096358Y0421585D01*
X0096328Y0421729D01*
X0096302Y0421873D01*
X0096281Y0422018D01*
X0096263Y0422164D01*
X0096249Y0422310D01*
X0096239Y0422456D01*
X0096233Y0422602D01*
X0096231Y0422749D01*
X0096231Y0229835D02*
X0096233Y0229982D01*
X0096239Y0230128D01*
X0096249Y0230274D01*
X0096263Y0230420D01*
X0096281Y0230566D01*
X0096302Y0230711D01*
X0096328Y0230855D01*
X0096358Y0230999D01*
X0096391Y0231141D01*
X0096428Y0231283D01*
X0096469Y0231424D01*
X0096514Y0231563D01*
X0096563Y0231702D01*
X0096615Y0231839D01*
X0096672Y0231974D01*
X0096731Y0232108D01*
X0096795Y0232240D01*
X0096862Y0232370D01*
X0096932Y0232499D01*
X0097006Y0232626D01*
X0097083Y0232750D01*
X0097164Y0232873D01*
X0097248Y0232993D01*
X0097335Y0233111D01*
X0097425Y0233226D01*
X0097518Y0233339D01*
X0097615Y0233450D01*
X0097714Y0233558D01*
X0097816Y0233663D01*
X0097921Y0233765D01*
X0098029Y0233864D01*
X0098140Y0233961D01*
X0098253Y0234054D01*
X0098368Y0234144D01*
X0098486Y0234231D01*
X0098606Y0234315D01*
X0098729Y0234396D01*
X0098853Y0234473D01*
X0098980Y0234547D01*
X0099109Y0234617D01*
X0099239Y0234684D01*
X0099371Y0234748D01*
X0099505Y0234807D01*
X0099640Y0234864D01*
X0099777Y0234916D01*
X0099916Y0234965D01*
X0100055Y0235010D01*
X0100196Y0235051D01*
X0100338Y0235088D01*
X0100480Y0235121D01*
X0100624Y0235151D01*
X0100768Y0235177D01*
X0100913Y0235198D01*
X0101059Y0235216D01*
X0101205Y0235230D01*
X0101351Y0235240D01*
X0101497Y0235246D01*
X0101644Y0235248D01*
X0101791Y0235246D01*
X0101937Y0235240D01*
X0102083Y0235230D01*
X0102229Y0235216D01*
X0102375Y0235198D01*
X0102520Y0235177D01*
X0102664Y0235151D01*
X0102808Y0235121D01*
X0102950Y0235088D01*
X0103092Y0235051D01*
X0103233Y0235010D01*
X0103372Y0234965D01*
X0103511Y0234916D01*
X0103648Y0234864D01*
X0103783Y0234807D01*
X0103917Y0234748D01*
X0104049Y0234684D01*
X0104179Y0234617D01*
X0104308Y0234547D01*
X0104435Y0234473D01*
X0104559Y0234396D01*
X0104682Y0234315D01*
X0104802Y0234231D01*
X0104920Y0234144D01*
X0105035Y0234054D01*
X0105148Y0233961D01*
X0105259Y0233864D01*
X0105367Y0233765D01*
X0105472Y0233663D01*
X0105574Y0233558D01*
X0105673Y0233450D01*
X0105770Y0233339D01*
X0105863Y0233226D01*
X0105953Y0233111D01*
X0106040Y0232993D01*
X0106124Y0232873D01*
X0106205Y0232750D01*
X0106282Y0232626D01*
X0106356Y0232499D01*
X0106426Y0232370D01*
X0106493Y0232240D01*
X0106557Y0232108D01*
X0106616Y0231974D01*
X0106673Y0231839D01*
X0106725Y0231702D01*
X0106774Y0231563D01*
X0106819Y0231424D01*
X0106860Y0231283D01*
X0106897Y0231141D01*
X0106930Y0230999D01*
X0106960Y0230855D01*
X0106986Y0230711D01*
X0107007Y0230566D01*
X0107025Y0230420D01*
X0107039Y0230274D01*
X0107049Y0230128D01*
X0107055Y0229982D01*
X0107057Y0229835D01*
X0107055Y0229688D01*
X0107049Y0229542D01*
X0107039Y0229396D01*
X0107025Y0229250D01*
X0107007Y0229104D01*
X0106986Y0228959D01*
X0106960Y0228815D01*
X0106930Y0228671D01*
X0106897Y0228529D01*
X0106860Y0228387D01*
X0106819Y0228246D01*
X0106774Y0228107D01*
X0106725Y0227968D01*
X0106673Y0227831D01*
X0106616Y0227696D01*
X0106557Y0227562D01*
X0106493Y0227430D01*
X0106426Y0227300D01*
X0106356Y0227171D01*
X0106282Y0227044D01*
X0106205Y0226920D01*
X0106124Y0226797D01*
X0106040Y0226677D01*
X0105953Y0226559D01*
X0105863Y0226444D01*
X0105770Y0226331D01*
X0105673Y0226220D01*
X0105574Y0226112D01*
X0105472Y0226007D01*
X0105367Y0225905D01*
X0105259Y0225806D01*
X0105148Y0225709D01*
X0105035Y0225616D01*
X0104920Y0225526D01*
X0104802Y0225439D01*
X0104682Y0225355D01*
X0104559Y0225274D01*
X0104435Y0225197D01*
X0104308Y0225123D01*
X0104179Y0225053D01*
X0104049Y0224986D01*
X0103917Y0224922D01*
X0103783Y0224863D01*
X0103648Y0224806D01*
X0103511Y0224754D01*
X0103372Y0224705D01*
X0103233Y0224660D01*
X0103092Y0224619D01*
X0102950Y0224582D01*
X0102808Y0224549D01*
X0102664Y0224519D01*
X0102520Y0224493D01*
X0102375Y0224472D01*
X0102229Y0224454D01*
X0102083Y0224440D01*
X0101937Y0224430D01*
X0101791Y0224424D01*
X0101644Y0224422D01*
X0101497Y0224424D01*
X0101351Y0224430D01*
X0101205Y0224440D01*
X0101059Y0224454D01*
X0100913Y0224472D01*
X0100768Y0224493D01*
X0100624Y0224519D01*
X0100480Y0224549D01*
X0100338Y0224582D01*
X0100196Y0224619D01*
X0100055Y0224660D01*
X0099916Y0224705D01*
X0099777Y0224754D01*
X0099640Y0224806D01*
X0099505Y0224863D01*
X0099371Y0224922D01*
X0099239Y0224986D01*
X0099109Y0225053D01*
X0098980Y0225123D01*
X0098853Y0225197D01*
X0098729Y0225274D01*
X0098606Y0225355D01*
X0098486Y0225439D01*
X0098368Y0225526D01*
X0098253Y0225616D01*
X0098140Y0225709D01*
X0098029Y0225806D01*
X0097921Y0225905D01*
X0097816Y0226007D01*
X0097714Y0226112D01*
X0097615Y0226220D01*
X0097518Y0226331D01*
X0097425Y0226444D01*
X0097335Y0226559D01*
X0097248Y0226677D01*
X0097164Y0226797D01*
X0097083Y0226920D01*
X0097006Y0227044D01*
X0096932Y0227171D01*
X0096862Y0227300D01*
X0096795Y0227430D01*
X0096731Y0227562D01*
X0096672Y0227696D01*
X0096615Y0227831D01*
X0096563Y0227968D01*
X0096514Y0228107D01*
X0096469Y0228246D01*
X0096428Y0228387D01*
X0096391Y0228529D01*
X0096358Y0228671D01*
X0096328Y0228815D01*
X0096302Y0228959D01*
X0096281Y0229104D01*
X0096263Y0229250D01*
X0096249Y0229396D01*
X0096239Y0229542D01*
X0096233Y0229688D01*
X0096231Y0229835D01*
X0324577Y0229835D02*
X0324579Y0229982D01*
X0324585Y0230128D01*
X0324595Y0230274D01*
X0324609Y0230420D01*
X0324627Y0230566D01*
X0324648Y0230711D01*
X0324674Y0230855D01*
X0324704Y0230999D01*
X0324737Y0231141D01*
X0324774Y0231283D01*
X0324815Y0231424D01*
X0324860Y0231563D01*
X0324909Y0231702D01*
X0324961Y0231839D01*
X0325018Y0231974D01*
X0325077Y0232108D01*
X0325141Y0232240D01*
X0325208Y0232370D01*
X0325278Y0232499D01*
X0325352Y0232626D01*
X0325429Y0232750D01*
X0325510Y0232873D01*
X0325594Y0232993D01*
X0325681Y0233111D01*
X0325771Y0233226D01*
X0325864Y0233339D01*
X0325961Y0233450D01*
X0326060Y0233558D01*
X0326162Y0233663D01*
X0326267Y0233765D01*
X0326375Y0233864D01*
X0326486Y0233961D01*
X0326599Y0234054D01*
X0326714Y0234144D01*
X0326832Y0234231D01*
X0326952Y0234315D01*
X0327075Y0234396D01*
X0327199Y0234473D01*
X0327326Y0234547D01*
X0327455Y0234617D01*
X0327585Y0234684D01*
X0327717Y0234748D01*
X0327851Y0234807D01*
X0327986Y0234864D01*
X0328123Y0234916D01*
X0328262Y0234965D01*
X0328401Y0235010D01*
X0328542Y0235051D01*
X0328684Y0235088D01*
X0328826Y0235121D01*
X0328970Y0235151D01*
X0329114Y0235177D01*
X0329259Y0235198D01*
X0329405Y0235216D01*
X0329551Y0235230D01*
X0329697Y0235240D01*
X0329843Y0235246D01*
X0329990Y0235248D01*
X0330137Y0235246D01*
X0330283Y0235240D01*
X0330429Y0235230D01*
X0330575Y0235216D01*
X0330721Y0235198D01*
X0330866Y0235177D01*
X0331010Y0235151D01*
X0331154Y0235121D01*
X0331296Y0235088D01*
X0331438Y0235051D01*
X0331579Y0235010D01*
X0331718Y0234965D01*
X0331857Y0234916D01*
X0331994Y0234864D01*
X0332129Y0234807D01*
X0332263Y0234748D01*
X0332395Y0234684D01*
X0332525Y0234617D01*
X0332654Y0234547D01*
X0332781Y0234473D01*
X0332905Y0234396D01*
X0333028Y0234315D01*
X0333148Y0234231D01*
X0333266Y0234144D01*
X0333381Y0234054D01*
X0333494Y0233961D01*
X0333605Y0233864D01*
X0333713Y0233765D01*
X0333818Y0233663D01*
X0333920Y0233558D01*
X0334019Y0233450D01*
X0334116Y0233339D01*
X0334209Y0233226D01*
X0334299Y0233111D01*
X0334386Y0232993D01*
X0334470Y0232873D01*
X0334551Y0232750D01*
X0334628Y0232626D01*
X0334702Y0232499D01*
X0334772Y0232370D01*
X0334839Y0232240D01*
X0334903Y0232108D01*
X0334962Y0231974D01*
X0335019Y0231839D01*
X0335071Y0231702D01*
X0335120Y0231563D01*
X0335165Y0231424D01*
X0335206Y0231283D01*
X0335243Y0231141D01*
X0335276Y0230999D01*
X0335306Y0230855D01*
X0335332Y0230711D01*
X0335353Y0230566D01*
X0335371Y0230420D01*
X0335385Y0230274D01*
X0335395Y0230128D01*
X0335401Y0229982D01*
X0335403Y0229835D01*
X0335401Y0229688D01*
X0335395Y0229542D01*
X0335385Y0229396D01*
X0335371Y0229250D01*
X0335353Y0229104D01*
X0335332Y0228959D01*
X0335306Y0228815D01*
X0335276Y0228671D01*
X0335243Y0228529D01*
X0335206Y0228387D01*
X0335165Y0228246D01*
X0335120Y0228107D01*
X0335071Y0227968D01*
X0335019Y0227831D01*
X0334962Y0227696D01*
X0334903Y0227562D01*
X0334839Y0227430D01*
X0334772Y0227300D01*
X0334702Y0227171D01*
X0334628Y0227044D01*
X0334551Y0226920D01*
X0334470Y0226797D01*
X0334386Y0226677D01*
X0334299Y0226559D01*
X0334209Y0226444D01*
X0334116Y0226331D01*
X0334019Y0226220D01*
X0333920Y0226112D01*
X0333818Y0226007D01*
X0333713Y0225905D01*
X0333605Y0225806D01*
X0333494Y0225709D01*
X0333381Y0225616D01*
X0333266Y0225526D01*
X0333148Y0225439D01*
X0333028Y0225355D01*
X0332905Y0225274D01*
X0332781Y0225197D01*
X0332654Y0225123D01*
X0332525Y0225053D01*
X0332395Y0224986D01*
X0332263Y0224922D01*
X0332129Y0224863D01*
X0331994Y0224806D01*
X0331857Y0224754D01*
X0331718Y0224705D01*
X0331579Y0224660D01*
X0331438Y0224619D01*
X0331296Y0224582D01*
X0331154Y0224549D01*
X0331010Y0224519D01*
X0330866Y0224493D01*
X0330721Y0224472D01*
X0330575Y0224454D01*
X0330429Y0224440D01*
X0330283Y0224430D01*
X0330137Y0224424D01*
X0329990Y0224422D01*
X0329843Y0224424D01*
X0329697Y0224430D01*
X0329551Y0224440D01*
X0329405Y0224454D01*
X0329259Y0224472D01*
X0329114Y0224493D01*
X0328970Y0224519D01*
X0328826Y0224549D01*
X0328684Y0224582D01*
X0328542Y0224619D01*
X0328401Y0224660D01*
X0328262Y0224705D01*
X0328123Y0224754D01*
X0327986Y0224806D01*
X0327851Y0224863D01*
X0327717Y0224922D01*
X0327585Y0224986D01*
X0327455Y0225053D01*
X0327326Y0225123D01*
X0327199Y0225197D01*
X0327075Y0225274D01*
X0326952Y0225355D01*
X0326832Y0225439D01*
X0326714Y0225526D01*
X0326599Y0225616D01*
X0326486Y0225709D01*
X0326375Y0225806D01*
X0326267Y0225905D01*
X0326162Y0226007D01*
X0326060Y0226112D01*
X0325961Y0226220D01*
X0325864Y0226331D01*
X0325771Y0226444D01*
X0325681Y0226559D01*
X0325594Y0226677D01*
X0325510Y0226797D01*
X0325429Y0226920D01*
X0325352Y0227044D01*
X0325278Y0227171D01*
X0325208Y0227300D01*
X0325141Y0227430D01*
X0325077Y0227562D01*
X0325018Y0227696D01*
X0324961Y0227831D01*
X0324909Y0227968D01*
X0324860Y0228107D01*
X0324815Y0228246D01*
X0324774Y0228387D01*
X0324737Y0228529D01*
X0324704Y0228671D01*
X0324674Y0228815D01*
X0324648Y0228959D01*
X0324627Y0229104D01*
X0324609Y0229250D01*
X0324595Y0229396D01*
X0324585Y0229542D01*
X0324579Y0229688D01*
X0324577Y0229835D01*
X0324577Y0422749D02*
X0324579Y0422896D01*
X0324585Y0423042D01*
X0324595Y0423188D01*
X0324609Y0423334D01*
X0324627Y0423480D01*
X0324648Y0423625D01*
X0324674Y0423769D01*
X0324704Y0423913D01*
X0324737Y0424055D01*
X0324774Y0424197D01*
X0324815Y0424338D01*
X0324860Y0424477D01*
X0324909Y0424616D01*
X0324961Y0424753D01*
X0325018Y0424888D01*
X0325077Y0425022D01*
X0325141Y0425154D01*
X0325208Y0425284D01*
X0325278Y0425413D01*
X0325352Y0425540D01*
X0325429Y0425664D01*
X0325510Y0425787D01*
X0325594Y0425907D01*
X0325681Y0426025D01*
X0325771Y0426140D01*
X0325864Y0426253D01*
X0325961Y0426364D01*
X0326060Y0426472D01*
X0326162Y0426577D01*
X0326267Y0426679D01*
X0326375Y0426778D01*
X0326486Y0426875D01*
X0326599Y0426968D01*
X0326714Y0427058D01*
X0326832Y0427145D01*
X0326952Y0427229D01*
X0327075Y0427310D01*
X0327199Y0427387D01*
X0327326Y0427461D01*
X0327455Y0427531D01*
X0327585Y0427598D01*
X0327717Y0427662D01*
X0327851Y0427721D01*
X0327986Y0427778D01*
X0328123Y0427830D01*
X0328262Y0427879D01*
X0328401Y0427924D01*
X0328542Y0427965D01*
X0328684Y0428002D01*
X0328826Y0428035D01*
X0328970Y0428065D01*
X0329114Y0428091D01*
X0329259Y0428112D01*
X0329405Y0428130D01*
X0329551Y0428144D01*
X0329697Y0428154D01*
X0329843Y0428160D01*
X0329990Y0428162D01*
X0330137Y0428160D01*
X0330283Y0428154D01*
X0330429Y0428144D01*
X0330575Y0428130D01*
X0330721Y0428112D01*
X0330866Y0428091D01*
X0331010Y0428065D01*
X0331154Y0428035D01*
X0331296Y0428002D01*
X0331438Y0427965D01*
X0331579Y0427924D01*
X0331718Y0427879D01*
X0331857Y0427830D01*
X0331994Y0427778D01*
X0332129Y0427721D01*
X0332263Y0427662D01*
X0332395Y0427598D01*
X0332525Y0427531D01*
X0332654Y0427461D01*
X0332781Y0427387D01*
X0332905Y0427310D01*
X0333028Y0427229D01*
X0333148Y0427145D01*
X0333266Y0427058D01*
X0333381Y0426968D01*
X0333494Y0426875D01*
X0333605Y0426778D01*
X0333713Y0426679D01*
X0333818Y0426577D01*
X0333920Y0426472D01*
X0334019Y0426364D01*
X0334116Y0426253D01*
X0334209Y0426140D01*
X0334299Y0426025D01*
X0334386Y0425907D01*
X0334470Y0425787D01*
X0334551Y0425664D01*
X0334628Y0425540D01*
X0334702Y0425413D01*
X0334772Y0425284D01*
X0334839Y0425154D01*
X0334903Y0425022D01*
X0334962Y0424888D01*
X0335019Y0424753D01*
X0335071Y0424616D01*
X0335120Y0424477D01*
X0335165Y0424338D01*
X0335206Y0424197D01*
X0335243Y0424055D01*
X0335276Y0423913D01*
X0335306Y0423769D01*
X0335332Y0423625D01*
X0335353Y0423480D01*
X0335371Y0423334D01*
X0335385Y0423188D01*
X0335395Y0423042D01*
X0335401Y0422896D01*
X0335403Y0422749D01*
X0335401Y0422602D01*
X0335395Y0422456D01*
X0335385Y0422310D01*
X0335371Y0422164D01*
X0335353Y0422018D01*
X0335332Y0421873D01*
X0335306Y0421729D01*
X0335276Y0421585D01*
X0335243Y0421443D01*
X0335206Y0421301D01*
X0335165Y0421160D01*
X0335120Y0421021D01*
X0335071Y0420882D01*
X0335019Y0420745D01*
X0334962Y0420610D01*
X0334903Y0420476D01*
X0334839Y0420344D01*
X0334772Y0420214D01*
X0334702Y0420085D01*
X0334628Y0419958D01*
X0334551Y0419834D01*
X0334470Y0419711D01*
X0334386Y0419591D01*
X0334299Y0419473D01*
X0334209Y0419358D01*
X0334116Y0419245D01*
X0334019Y0419134D01*
X0333920Y0419026D01*
X0333818Y0418921D01*
X0333713Y0418819D01*
X0333605Y0418720D01*
X0333494Y0418623D01*
X0333381Y0418530D01*
X0333266Y0418440D01*
X0333148Y0418353D01*
X0333028Y0418269D01*
X0332905Y0418188D01*
X0332781Y0418111D01*
X0332654Y0418037D01*
X0332525Y0417967D01*
X0332395Y0417900D01*
X0332263Y0417836D01*
X0332129Y0417777D01*
X0331994Y0417720D01*
X0331857Y0417668D01*
X0331718Y0417619D01*
X0331579Y0417574D01*
X0331438Y0417533D01*
X0331296Y0417496D01*
X0331154Y0417463D01*
X0331010Y0417433D01*
X0330866Y0417407D01*
X0330721Y0417386D01*
X0330575Y0417368D01*
X0330429Y0417354D01*
X0330283Y0417344D01*
X0330137Y0417338D01*
X0329990Y0417336D01*
X0329843Y0417338D01*
X0329697Y0417344D01*
X0329551Y0417354D01*
X0329405Y0417368D01*
X0329259Y0417386D01*
X0329114Y0417407D01*
X0328970Y0417433D01*
X0328826Y0417463D01*
X0328684Y0417496D01*
X0328542Y0417533D01*
X0328401Y0417574D01*
X0328262Y0417619D01*
X0328123Y0417668D01*
X0327986Y0417720D01*
X0327851Y0417777D01*
X0327717Y0417836D01*
X0327585Y0417900D01*
X0327455Y0417967D01*
X0327326Y0418037D01*
X0327199Y0418111D01*
X0327075Y0418188D01*
X0326952Y0418269D01*
X0326832Y0418353D01*
X0326714Y0418440D01*
X0326599Y0418530D01*
X0326486Y0418623D01*
X0326375Y0418720D01*
X0326267Y0418819D01*
X0326162Y0418921D01*
X0326060Y0419026D01*
X0325961Y0419134D01*
X0325864Y0419245D01*
X0325771Y0419358D01*
X0325681Y0419473D01*
X0325594Y0419591D01*
X0325510Y0419711D01*
X0325429Y0419834D01*
X0325352Y0419958D01*
X0325278Y0420085D01*
X0325208Y0420214D01*
X0325141Y0420344D01*
X0325077Y0420476D01*
X0325018Y0420610D01*
X0324961Y0420745D01*
X0324909Y0420882D01*
X0324860Y0421021D01*
X0324815Y0421160D01*
X0324774Y0421301D01*
X0324737Y0421443D01*
X0324704Y0421585D01*
X0324674Y0421729D01*
X0324648Y0421873D01*
X0324627Y0422018D01*
X0324609Y0422164D01*
X0324595Y0422310D01*
X0324585Y0422456D01*
X0324579Y0422602D01*
X0324577Y0422749D01*
D14*
X0241506Y0384402D03*
X0234616Y0384402D03*
X0221506Y0384402D03*
X0214616Y0384402D03*
X0218278Y0298733D03*
X0225167Y0298733D03*
X0225167Y0286922D03*
X0218278Y0286922D03*
X0209419Y0286922D03*
X0202530Y0286922D03*
X0202530Y0298733D03*
X0209419Y0298733D03*
X0209419Y0275111D03*
X0202530Y0275111D03*
X0202530Y0263300D03*
X0209419Y0263300D03*
X0218278Y0263300D03*
X0225167Y0263300D03*
X0225167Y0251489D03*
X0218278Y0251489D03*
X0209419Y0251489D03*
X0202530Y0251489D03*
X0218278Y0275111D03*
X0225167Y0275111D03*
X0380817Y0251902D03*
X0387707Y0251902D03*
D15*
X0284321Y0251784D03*
X0284321Y0249225D03*
X0284321Y0246666D03*
X0284321Y0254343D03*
X0284321Y0256902D03*
X0284321Y0259461D03*
X0284321Y0262020D03*
X0284321Y0264580D03*
X0284321Y0267139D03*
X0284321Y0269698D03*
X0284321Y0272257D03*
X0284321Y0274816D03*
X0284321Y0277375D03*
X0284321Y0279934D03*
X0261486Y0279934D03*
X0261486Y0277375D03*
X0261486Y0274816D03*
X0261486Y0272257D03*
X0261486Y0269698D03*
X0261486Y0267139D03*
X0261486Y0264580D03*
X0261486Y0262020D03*
X0261486Y0259461D03*
X0261486Y0256902D03*
X0261486Y0254343D03*
X0261486Y0251784D03*
X0261486Y0249225D03*
X0261486Y0246666D03*
D16*
X0269715Y0059952D03*
X0276407Y0059952D03*
D17*
X0236978Y0111686D03*
X0236978Y0114245D03*
X0236978Y0116804D03*
X0236978Y0119363D03*
X0236978Y0121922D03*
X0236978Y0124481D03*
X0236978Y0127040D03*
X0236978Y0129599D03*
X0236978Y0132158D03*
X0236978Y0134717D03*
X0214144Y0134717D03*
X0214144Y0132158D03*
X0214144Y0129599D03*
X0214144Y0127040D03*
X0214144Y0124481D03*
X0214144Y0121922D03*
X0214144Y0119363D03*
X0214144Y0116804D03*
X0214144Y0114245D03*
X0214144Y0111686D03*
M02*
