%
M48
M72
T01C0.01969
T02C0.02362
T03C0.03150
T04C0.03200
T05C0.03937
T06C0.04000
T07C0.04700
T08C0.04724
T09C0.05200
T10C0.05500
T11C0.07200
T12C0.08661
T13C0.09843
T14C0.10827
T15C0.11024
%
T01
X378701Y216201
X371201Y216201
X386201Y216201
X380701Y198701
X216535Y236220
X216535Y224409
X216535Y212598
X216535Y248031
X248031Y232283
X43701Y328701
X23701Y338701
X18701Y338701
X13701Y338701
X18701Y213701
X13701Y213701
X373701Y338701
X368701Y338701
X378701Y338701
X14651Y355551
X63701Y348701
X8701Y213701
X308701Y353701
X308701Y198701
X258701Y248701
X288701Y253701
X276201Y251701
X258701Y253701
X293701Y253701
X276201Y246201
X148701Y233701
X138701Y243701
X168701Y278701
X103701Y283701
X103701Y278701
X98701Y283701
X45951Y214451
X258701Y278701
X258701Y263701
X283701Y278701
X171201Y282951
X173701Y278701
X183701Y219701
X109451Y221451
X120201Y221701
X108701Y236701
X120201Y236951
X284951Y200201
X358701Y78701
X358701Y88701
X97500Y17500
X345000Y247500
X216285Y201098
X93701Y203701
X345701Y206201
X281465Y195850
X286500Y195201
X277500Y199201
X272185Y191701
X280000Y208701
X277000Y204951
X195000Y333701
X248500Y252201
X47451Y209951
X242500Y193701
X110000Y243701
X180000Y206201
X182500Y213701
X172500Y216201
X145000Y291201
X20201Y321201
X14701Y321201
X28701Y348701
X143701Y278701
X183701Y328701
X248750Y247201
X8701Y198701
X8701Y203701
X338701Y319201
X333701Y278701
X328701Y283701
X388701Y353701
X383701Y353701
X261701Y211701
X265201Y223701
X176701Y199701
X12451Y231701
X205951Y351201
X276201Y258701
X248701Y258701
X126951Y242701
X65701Y120451
X283701Y133701
X313701Y133701
X282500Y34000
X375000Y312500
X350000Y295000
X377500Y285000
X350000Y267500
X380000Y255000
X30000Y145000
X62500Y147500
X46750Y149750
X287500Y115000
X172500Y20000
T02
X215000Y67500
T03
X238602Y351201
X257500Y363012
X273701Y78701
X273701Y68701
X243701Y68701
X243701Y78701
X273701Y58701
X243701Y58701
X243701Y88701
X273701Y88701
X273701Y98701
X243701Y98701
X243701Y48701
X273701Y48701
X273701Y108701
X243701Y108701
X243701Y38701
X273701Y38701
X178701Y78701
X178701Y68701
X148701Y68701
X148701Y78701
X178701Y58701
X148701Y58701
X148701Y88701
X178701Y88701
X178701Y98701
X148701Y98701
X148701Y48701
X178701Y48701
X178701Y108701
X148701Y108701
X148701Y38701
X178701Y38701
X373701Y39803
X385512Y58701
T04
X250000Y288701
X240000Y288701
X190000Y288701
X180000Y288701
X230000Y288701
X220000Y288701
X200000Y288701
X210000Y288701
X180000Y318701
X190000Y318701
X200000Y318701
X210000Y318701
X220000Y318701
X230000Y318701
X240000Y318701
X250000Y318701
X33701Y373701
X33701Y363701
X364201Y195701
X364201Y205701
X38701Y213701
X38701Y203701
X353701Y333701
X353701Y343701
X40250Y17000
X50250Y17000
X72500Y37500
X32500Y37500
X87500Y12500
X127500Y12500
X77500Y22500
X72500Y15000
X67500Y22500
T05
X353701Y213701
X353701Y223701
X353701Y233701
X112500Y282500
X122500Y282500
X132500Y282500
X257500Y339390
X361890Y58701
X17500Y70000
X17500Y80000
X17500Y90000
X383701Y93701
X27500Y298701
X27500Y288701
X27500Y238701
X27500Y308701
X27500Y248701
X27500Y258701
X27500Y268701
X27500Y278701
X17500Y248701
X17500Y258701
X17500Y268701
X17500Y278701
X17500Y288701
X17500Y298701
X17500Y238701
X17500Y308701
X37500Y248701
X37500Y258701
X37500Y268701
X37500Y278701
X47500Y278701
X47500Y288701
X37500Y288701
X37500Y298701
X47500Y308701
X7500Y238701
X7500Y248701
X7500Y258701
X7500Y268701
X7500Y278701
X7500Y288701
X7500Y298701
X7500Y308701
X47500Y248701
X47500Y238701
X47500Y258701
X47500Y268701
X47500Y298701
X37500Y308701
X37500Y238701
X197500Y381201
X187500Y381201
X383701Y83701
X383701Y73701
T06
X297756Y184134
X297809Y174127
X287809Y184127
X287809Y174127
X277809Y184127
X277809Y174127
X267809Y184127
X267809Y174127
X257809Y184127
X257809Y174127
X247809Y184127
X247809Y174127
X237809Y184127
X237809Y174127
X227809Y184127
X227809Y174127
X217809Y184127
X217809Y174127
X207809Y184127
X207809Y174127
X197809Y184127
X197809Y174127
X187809Y184127
X187809Y174127
X177809Y184127
X177809Y174127
X167809Y184127
X167809Y174127
X157809Y184127
X157809Y174127
X147809Y184127
X147809Y174127
X137809Y184127
X137809Y174127
X127809Y184127
X127809Y174127
X117809Y184127
X117809Y174127
X107809Y184127
X107809Y174127
X311811Y213622
X321811Y213622
X297701Y184201
X297701Y174201
X287701Y184201
X287701Y174201
X277701Y184201
X277701Y174201
X267701Y184201
X267701Y174201
X257701Y184201
X257701Y174201
X247701Y184201
X247701Y174201
X237701Y184201
X237701Y174201
X227701Y184201
X227701Y174201
X217701Y184201
X217701Y174201
X207701Y184201
X207701Y174201
X197701Y184201
X197701Y174201
X187701Y184201
X187701Y174201
X177701Y184201
X177701Y174201
X167701Y184201
X167701Y174201
X157701Y184201
X157701Y174201
X147701Y184201
X147701Y174201
X137701Y184201
X137701Y174201
X127701Y184201
X127701Y174201
X117701Y184201
X117701Y174201
X107701Y184201
X107701Y174201
X353851Y194501
X336051Y194501
X353851Y168901
X336051Y168901
X49801Y165901
X67601Y165901
X49801Y191501
X67601Y191501
X49801Y360901
X67601Y360901
X49801Y386501
X67601Y386501
X352601Y386501
X334801Y386501
X352601Y360901
X334801Y360901
X242451Y163701
X232451Y163701
X222451Y163701
X212451Y163701
X202451Y163701
X192451Y163701
X182451Y163701
X172451Y163701
X162451Y163701
X297701Y184201
X287701Y184201
X277701Y184201
X267701Y184201
X257701Y184201
X247701Y184201
X297701Y174201
X287701Y174201
X277701Y174201
X267701Y174201
X257701Y174201
X247701Y174201
X237701Y184201
X237701Y174201
X227701Y184201
X217701Y184201
X207701Y184201
X197701Y184201
X187701Y184201
X177701Y184201
X227701Y174201
X217701Y174201
X207701Y174201
X197701Y174201
X187701Y174201
X177701Y174201
X167701Y184201
X167701Y174201
X157701Y184201
X147701Y184201
X137701Y184201
X127701Y184201
X117701Y184201
X107701Y184201
X157701Y174201
X147701Y174201
X137701Y174201
X127701Y174201
X117701Y174201
X107701Y174201
X295201Y125701
X295201Y115701
X295201Y105701
X295201Y95701
X295201Y85701
X295201Y75701
X305201Y125701
X305201Y115701
X305201Y105701
X305201Y95701
X305201Y85701
X305201Y75701
X295201Y65701
X305201Y65701
X295201Y55701
X295201Y45701
X295201Y35701
X295201Y25701
X295201Y15701
X295201Y5701
X305201Y55701
X305201Y45701
X305201Y35701
X305201Y25701
X305201Y15701
X305201Y5701
T07
X13701Y168858
X13701Y188543
X13701Y363858
X13701Y383543
X378701Y383543
X378701Y363858
X378701Y188543
X378701Y168858
X383701Y28543
X383701Y8858
X383701Y148543
X383701Y128858
X8701Y8858
X8701Y28543
X8701Y128858
X8701Y148543
T08
X177500Y381201
X215000Y381201
X225000Y381201
X383701Y113701
X383701Y103701
T09
X71201Y78701
X63201Y102201
X63201Y55201
X15201Y55201
X15201Y102201
T10
X43451Y107701
X43451Y47701
X241201Y10201
X181201Y10201
T11
X93780Y218661
X67213Y228661
X93780Y238661
X293622Y238740
X320189Y228740
X293622Y218740
X293622Y333740
X320189Y323740
X293622Y313740
X93780Y313661
X67213Y323661
X93780Y333661
X328622Y48740
X355189Y38740
X328622Y28740
X128780Y28661
X102213Y38661
X128780Y48661
X328622Y118740
X355189Y108740
X328622Y98740
X128780Y98661
X102213Y108661
X128780Y118661
T12
X239000Y351201
X373701Y40201
T13
X257500Y363201
X257500Y339701
X385701Y58701
X362201Y58701
T14
X316929Y372047
X88583Y372047
X316929Y179134
X88583Y179134
T15
X107451Y144701
X317201Y179201
X300451Y144951
X88701Y179201
X88701Y372201
X317201Y372201
M30
